<svg width="28" height="28" viewBox="0 0 28 28" fill="none" xmlns="http://www.w3.org/2000/svg">
<circle cx="14" cy="14" r="14" fill="#2DA169"/>
<path d="M19.4417 7.88834H7.88832C7.09403 7.88834 6.45137 8.53821 6.45137 9.3325L6.44415 17.9975C6.44415 18.7918 7.09403 19.4417 7.88832 19.4417H19.4417C20.2359 19.4417 20.8858 18.7918 20.8858 17.9975V9.3325C20.8858 8.53821 20.2359 7.88834 19.4417 7.88834ZM19.1528 10.9572L14.0477 14.1488C13.8166 14.2932 13.5133 14.2932 13.2823 14.1488L8.17715 10.9572C7.99663 10.8417 7.88832 10.6467 7.88832 10.4373C7.88832 9.95349 8.41544 9.66466 8.82703 9.91739L13.665 12.9429L18.5029 9.91739C18.9145 9.66466 19.4417 9.95349 19.4417 10.4373C19.4417 10.6467 19.3333 10.8417 19.1528 10.9572Z" fill="#D7F4E6"/>
</svg>
