<svg width="28" height="28" viewBox="0 0 28 28" fill="none" xmlns="http://www.w3.org/2000/svg">
<circle cx="14" cy="14" r="14" fill="#2DA169"/>
<path d="M19.7778 7.49997H14C13.6028 7.49997 13.2778 7.82497 13.2778 8.22219V9.38497C13.2778 9.38497 13.2778 9.38497 13.285 9.39219L16.8961 12.6422C17.3511 13.0466 17.6111 13.6389 17.6111 14.2527V14.7222H19.0555V16.1666H17.6111V17.6111H19.0555V19.0555H17.6111V20.5H19.7778C20.175 20.5 20.5 20.175 20.5 19.7777V8.22219C20.5 7.82497 20.175 7.49997 19.7778 7.49997ZM16.1667 10.3889H14.7222V8.94441H16.1667V10.3889ZM19.0555 13.2777H17.6111V11.8333H19.0555V13.2777ZM19.0555 10.3889H17.6111V8.94441H19.0555V10.3889Z" fill="#D7F4E6"/>
<path d="M16.1667 19.7778V14.2528C16.1667 14.0505 16.08 13.8555 15.9283 13.7183L12.3172 10.4683C12.18 10.3383 12.0067 10.2805 11.8333 10.2805C11.66 10.2805 11.4867 10.3455 11.3494 10.4683L7.73833 13.7183C7.58667 13.8483 7.5 14.0433 7.5 14.2528V19.7778C7.5 20.175 7.825 20.5 8.22222 20.5H9.66667C10.0639 20.5 10.3889 20.175 10.3889 19.7778V16.8889H13.2778V19.7778C13.2778 20.175 13.6028 20.5 14 20.5H15.4444C15.8417 20.5 16.1667 20.175 16.1667 19.7778Z" fill="#D7F4E6"/>
</svg>
