<svg width="24" height="24" viewBox="0 0 24 24" fill="none" xmlns="http://www.w3.org/2000/svg">
<path d="M21.41 8.63988C21.41 8.63988 21.41 8.63988 21.41 8.58988C20.7054 6.6661 19.4269 5.00516 17.7475 3.83174C16.0681 2.65832 14.0688 2.02905 12.02 2.02905C9.97126 2.02905 7.97195 2.65832 6.29252 3.83174C4.6131 5.00516 3.33461 6.6661 2.63001 8.58988C2.63001 8.58988 2.63001 8.58988 2.63001 8.63988C1.84314 10.8108 1.84314 13.189 2.63001 15.3599C2.63001 15.3599 2.63001 15.3599 2.63001 15.4099C3.33461 17.3337 4.6131 18.9946 6.29252 20.168C7.97195 21.3414 9.97126 21.9707 12.02 21.9707C14.0688 21.9707 16.0681 21.3414 17.7475 20.168C19.4269 18.9946 20.7054 17.3337 21.41 15.4099C21.41 15.4099 21.41 15.4099 21.41 15.3599C22.1969 13.189 22.1969 10.8108 21.41 8.63988ZM4.26001 13.9999C3.91324 12.6891 3.91324 11.3107 4.26001 9.99988H6.12001C5.96004 11.3284 5.96004 12.6713 6.12001 13.9999H4.26001ZM5.08001 15.9999H6.48001C6.71473 16.8917 7.05022 17.7539 7.48001 18.5699C6.49931 17.9018 5.67951 17.0239 5.08001 15.9999ZM6.48001 7.99988H5.08001C5.67088 6.97897 6.4802 6.10135 7.45001 5.42988C7.03057 6.24713 6.70515 7.1093 6.48001 7.99988ZM11 19.6999C9.77178 18.7986 8.90916 17.4851 8.57001 15.9999H11V19.6999ZM11 13.9999H8.14001C7.9534 12.6731 7.9534 11.3267 8.14001 9.99988H11V13.9999ZM11 7.99988H8.57001C8.90916 6.51465 9.77178 5.2012 11 4.29988V7.99988ZM18.92 7.99988H17.52C17.2853 7.10804 16.9498 6.24582 16.52 5.42988C17.5007 6.09795 18.3205 6.97582 18.92 7.99988ZM13 4.29988C14.2282 5.2012 15.0909 6.51465 15.43 7.99988H13V4.29988ZM13 19.6999V15.9999H15.43C15.0909 17.4851 14.2282 18.7986 13 19.6999ZM15.86 13.9999H13V9.99988H15.86C16.0466 11.3267 16.0466 12.6731 15.86 13.9999ZM16.55 18.5699C16.9798 17.7539 17.3153 16.8917 17.55 15.9999H18.95C18.3505 17.0239 17.5307 17.9018 16.55 18.5699ZM19.74 13.9999H17.88C17.9613 13.3363 18.0014 12.6684 18 11.9999C18.0011 11.3314 17.961 10.6635 17.88 9.99988H19.74C20.0868 11.3107 20.0868 12.6891 19.74 13.9999Z" fill="#21784E"/>
</svg>
