<svg width="28" height="28" viewBox="0 0 28 28" fill="none" xmlns="http://www.w3.org/2000/svg">
<path d="M20.23 6.36992C19.9531 6.36992 19.6824 6.45203 19.4522 6.60586C19.222 6.7597 19.0425 6.97835 18.9365 7.23416C18.8306 7.48998 18.8029 7.77147 18.8569 8.04305C18.9109 8.31462 19.0442 8.56407 19.24 8.75987C19.4358 8.95566 19.6853 9.089 19.9569 9.14302C20.2284 9.19704 20.5099 9.16931 20.7657 9.06335C21.0216 8.95739 21.2402 8.77795 21.394 8.54772C21.5479 8.31749 21.63 8.04681 21.63 7.76992C21.63 7.39862 21.4825 7.04252 21.2199 6.77997C20.9574 6.51742 20.6013 6.36992 20.23 6.36992ZM25.5966 9.19325C25.574 8.22527 25.3927 7.26756 25.06 6.35825C24.7633 5.58024 24.3016 4.87574 23.7066 4.29325C23.1289 3.69525 22.4228 3.23646 21.6416 2.95159C20.7347 2.60877 19.776 2.42333 18.8066 2.40325C17.57 2.33325 17.1733 2.33325 14 2.33325C10.8266 2.33325 10.43 2.33325 9.19331 2.40325C8.22399 2.42333 7.26521 2.60877 6.35831 2.95159C5.5786 3.23934 4.87307 3.69774 4.29331 4.29325C3.69531 4.87096 3.23652 5.5771 2.95165 6.35825C2.60883 7.26515 2.42339 8.22393 2.40331 9.19325C2.33331 10.4299 2.33331 10.8266 2.33331 13.9999C2.33331 17.1733 2.33331 17.5699 2.40331 18.8066C2.42339 19.7759 2.60883 20.7347 2.95165 21.6416C3.23652 22.4227 3.69531 23.1289 4.29331 23.7066C4.87307 24.3021 5.5786 24.7605 6.35831 25.0483C7.26521 25.3911 8.22399 25.5765 9.19331 25.5966C10.43 25.6666 10.8266 25.6666 14 25.6666C17.1733 25.6666 17.57 25.6666 18.8066 25.5966C19.776 25.5765 20.7347 25.3911 21.6416 25.0483C22.4228 24.7634 23.1289 24.3046 23.7066 23.7066C24.3043 23.1263 24.7664 22.4211 25.06 21.6416C25.3927 20.7323 25.574 19.7746 25.5966 18.8066C25.5966 17.5699 25.6666 17.1733 25.6666 13.9999C25.6666 10.8266 25.6666 10.4299 25.5966 9.19325ZM23.4966 18.6666C23.4882 19.4072 23.354 20.1409 23.1 20.8366C22.9137 21.3443 22.6145 21.8031 22.225 22.1783C21.8466 22.5638 21.3887 22.8624 20.8833 23.0533C20.1876 23.3073 19.4539 23.4414 18.7133 23.4499C17.5466 23.5083 17.115 23.5199 14.0466 23.5199C10.9783 23.5199 10.5466 23.5199 9.37998 23.4499C8.61102 23.4643 7.84534 23.3459 7.11665 23.0999C6.63339 22.8993 6.19656 22.6015 5.83331 22.2249C5.44608 21.8501 5.15063 21.391 4.96998 20.8833C4.68515 20.1776 4.52716 19.4272 4.50331 18.6666C4.50331 17.4999 4.43331 17.0683 4.43331 13.9999C4.43331 10.9316 4.43331 10.4999 4.50331 9.33325C4.50854 8.57615 4.64675 7.82586 4.91165 7.11659C5.11703 6.62415 5.43229 6.18519 5.83331 5.83325C6.18776 5.43212 6.62582 5.11353 7.11665 4.89992C7.82779 4.6433 8.57731 4.50918 9.33331 4.50325C10.5 4.50325 10.9316 4.43325 14 4.43325C17.0683 4.43325 17.5 4.43325 18.6666 4.50325C19.4072 4.51175 20.141 4.64587 20.8366 4.89992C21.3668 5.09668 21.8427 5.41657 22.225 5.83325C22.6073 6.19163 22.906 6.62977 23.1 7.11659C23.3593 7.82701 23.4935 8.577 23.4966 9.33325C23.555 10.4999 23.5666 10.9316 23.5666 13.9999C23.5666 17.0683 23.555 17.4999 23.4966 18.6666ZM14 8.01492C12.8168 8.01723 11.6608 8.3702 10.6781 9.02924C9.69538 9.68828 8.93009 10.6238 8.47889 11.7176C8.02768 12.8114 7.91082 14.0145 8.14307 15.1747C8.37532 16.3349 8.94626 17.4002 9.78374 18.2361C10.6212 19.0719 11.6877 19.6408 12.8483 19.8708C14.009 20.1007 15.2118 19.9815 16.3047 19.5282C17.3976 19.0749 18.3317 18.3078 18.9888 17.3238C19.6459 16.3398 19.9966 15.1831 19.9966 13.9999C19.9982 13.2125 19.8441 12.4326 19.5431 11.705C19.2421 10.9774 18.8003 10.3165 18.243 9.76031C17.6857 9.20409 17.0239 8.76354 16.2957 8.464C15.5676 8.16446 14.7874 8.01184 14 8.01492ZM14 17.8849C13.2316 17.8849 12.4805 17.6571 11.8416 17.2302C11.2027 16.8033 10.7048 16.1965 10.4107 15.4866C10.1167 14.7768 10.0397 13.9956 10.1896 13.242C10.3395 12.4884 10.7095 11.7961 11.2529 11.2528C11.7962 10.7095 12.4884 10.3395 13.2421 10.1896C13.9957 10.0397 14.7768 10.1166 15.4867 10.4106C16.1966 10.7047 16.8034 11.2026 17.2302 11.8415C17.6571 12.4804 17.885 13.2315 17.885 13.9999C17.885 14.5101 17.7845 15.0153 17.5893 15.4866C17.394 15.958 17.1078 16.3863 16.7471 16.747C16.3863 17.1078 15.9581 17.394 15.4867 17.5892C15.0154 17.7844 14.5102 17.8849 14 17.8849Z" fill="#21784E"/>
</svg>
