<svg width="25" height="25" viewBox="0 0 25 25" fill="none" xmlns="http://www.w3.org/2000/svg">
<circle cx="12.5" cy="12.5" r="12.5" fill="#2DA169"/>
<g clip-path="url(#clip0_19_286)">
<path d="M15.4783 13.8256C15.317 13.7446 14.5215 13.3527 14.3732 13.2991C14.2249 13.2449 14.1172 13.2181 14.0094 13.3801C13.9016 13.5414 13.5914 13.9065 13.4967 14.0143C13.4026 14.1221 13.3079 14.1351 13.1466 14.0542C12.6699 13.8644 12.2298 13.5929 11.8462 13.2521C11.4924 12.9251 11.1891 12.5474 10.9462 12.1313C10.8521 11.9694 10.9364 11.8818 11.0174 11.8015C11.0899 11.729 11.1794 11.6127 11.2597 11.518C11.3262 11.4363 11.3808 11.3454 11.4217 11.2483C11.4432 11.2036 11.4532 11.1543 11.4508 11.1048C11.4484 11.0553 11.4337 11.0072 11.408 10.9648C11.3675 10.8838 11.0442 10.0877 10.9096 9.76371C10.7783 9.4489 10.6451 9.49135 10.5452 9.48613C10.4511 9.48156 10.3433 9.48025 10.2356 9.48025C10.1536 9.48254 10.073 9.50176 9.9988 9.53672C9.92461 9.57168 9.85846 9.62161 9.80451 9.68338C9.62165 9.85655 9.47686 10.0659 9.37937 10.2981C9.28187 10.5303 9.23381 10.7803 9.23824 11.0321C9.29069 11.6423 9.52019 12.2239 9.89856 12.7054C10.5921 13.7453 11.5442 14.5868 12.6613 15.1475C12.9627 15.277 13.2705 15.3908 13.5836 15.4884C13.9136 15.5886 14.2625 15.6103 14.6024 15.5518C14.8276 15.5062 15.0408 15.4144 15.2287 15.2822C15.4165 15.15 15.5749 14.9802 15.6938 14.7837C15.7999 14.542 15.8326 14.2745 15.7879 14.0143C15.748 13.9464 15.6403 13.9065 15.4783 13.8256ZM17.1059 7.89575C15.9955 6.78565 14.5196 6.11687 12.9529 6.01394C11.3862 5.911 9.83541 6.38091 8.58934 7.33619C7.34328 8.29147 6.48682 9.66701 6.17941 11.2067C5.872 12.7464 6.1346 14.3454 6.91831 15.7059L6 19.0598L9.43157 18.1604C10.3807 18.6772 11.4441 18.948 12.5248 18.9481H12.5274C13.8076 18.9474 15.0589 18.5674 16.1232 17.8559C17.1875 17.1444 18.017 16.1334 18.507 14.9506C18.9969 13.7679 19.1253 12.4665 18.876 11.2108C18.6266 9.9551 18.0106 8.8015 17.1059 7.89574V7.89575ZM15.3862 17.0324C14.5294 17.5695 13.5387 17.8545 12.5274 17.8547H12.5248C11.5614 17.8547 10.6157 17.5955 9.78688 17.1043L9.59028 16.988L7.55381 17.5223L8.09722 15.5368L7.96986 15.333C7.4046 14.4316 7.11933 13.3828 7.15013 12.3192C7.18093 11.2556 7.52641 10.2251 8.14288 9.3579C8.75936 8.49069 9.61914 7.82576 10.6135 7.44718C11.6079 7.06861 12.6922 6.99339 13.7293 7.23105C14.7664 7.4687 15.7098 8.00856 16.4401 8.78234C17.1704 9.55613 17.6549 10.5291 17.8322 11.5782C18.0096 12.6273 17.8718 13.7055 17.4364 14.6763C17.0011 15.6472 16.2876 16.4671 15.3862 17.0324Z" fill="#D7F4E6"/>
</g>
<defs>
<clipPath id="clip0_19_286">
<rect width="13" height="13.0598" fill="white" transform="translate(6 6)"/>
</clipPath>
</defs>
</svg>
